<svg xmlns="http://www.w3.org/2000/svg" width="344.453" height="351.669" viewBox="0 0 344.453 351.669">
  <path id="Path_280" data-name="Path 280" d="M232.09,54.322,204.053,85.239l-1.617.836-21.665-4.759,7.541-16.046ZM206.521,87.761l31.458-34.693,77.139,9.508-91.607,38.67ZM273.882,8.228,236.357,49.617l-50.518,12.63L177.054,80.5l-37.171-8.171L177.4,28.379Zm-98.445,16.73L136.172,71.523,98.553,63.259l-6.9-22.84-39,14.65,25.657,8.618L26.975,98.174,0,100.2l4.808,24.448,28.046,7.532,76.131,38.179L85.408,211.293l25.456,67.675,4.483-59.082,8.51-4.277,23.646,26.4-9.817-33.346,12.728-6.4-13.111-78.7.177-.088,23.878,85.3,45.164,25.1-6.4-65.045L225.374,262.4l-15.751,60.522,70.871-86.809L245.58,290.236l8.662,63.988,56.118-123.257-3.726-20.333,28.282,6.6,9.537-30.106h0l-31.517.029,21.415,11.287-10.1,11.312-20.387-14.281-6.529-35.657-70.581-56L328.638,60.678,240.89,49.863,283.778,2.555Z" transform="translate(0 -2.555)" fill="#3ecfeb" opacity="0.1"/>
</svg>
