<svg xmlns="http://www.w3.org/2000/svg" xmlns:xlink="http://www.w3.org/1999/xlink" width="315.2" height="348.852" viewBox="0 0 315.2 348.852">
  <defs>
    <clipPath id="clip-path">
      <rect id="Rectangle_791" data-name="Rectangle 791" width="315.2" height="348.852" fill="none" stroke="#3ecfeb" stroke-width="1"/>
    </clipPath>
  </defs>
  <g id="Group_1758" data-name="Group 1758" transform="translate(-858.019 -1332.457)">
    <g id="Group_1667" data-name="Group 1667" transform="translate(858.019 1332.457)" opacity="0.5">
      <g id="Group_1666" data-name="Group 1666" transform="translate(0)" clip-path="url(#clip-path)">
        <path id="Path_1026" data-name="Path 1026" d="M14.217,63.387a.5.5,0,0,1-.386-.817A156.019,156.019,0,0,1,108.294,7.542a.5.5,0,1,1,.168.986A155.019,155.019,0,0,0,14.6,63.2.5.5,0,0,1,14.217,63.387Z" transform="translate(22.934 12.961)" fill="#3ecfeb"/>
        <path id="Path_1027" data-name="Path 1027" d="M10.194,155.467a.5.5,0,0,1-.47-.328A155.663,155.663,0,0,1,.25,101.453a157.5,157.5,0,0,1,2.706-29.1,155.484,155.484,0,0,1,7.788-27.3.5.5,0,1,1,.932.361A154.481,154.481,0,0,0,3.938,72.543a156.5,156.5,0,0,0-2.688,28.91A154.666,154.666,0,0,0,10.663,154.8a.5.5,0,0,1-.469.672Z" transform="translate(1.21 72.973)" fill="#3ecfeb"/>
        <path id="Path_1028" data-name="Path 1028" d="M108.145,159.712a.5.5,0,0,1-.085-.007A155.446,155.446,0,0,1,80.7,152.4a155.859,155.859,0,0,1-25.143-11.9A157.031,157.031,0,0,1,33.116,124.48a157.553,157.553,0,0,1-19.243-19.636.5.5,0,1,1,.773-.635,156.552,156.552,0,0,0,19.12,19.511,156.031,156.031,0,0,0,22.292,15.911,154.86,154.86,0,0,0,24.981,11.827,154.445,154.445,0,0,0,27.188,7.26.5.5,0,0,1-.084.993Z" transform="translate(23.003 168.615)" fill="#3ecfeb"/>
        <path id="Path_1029" data-name="Path 1029" d="M69.961,159.72a.5.5,0,0,1-.08-.994,154.975,154.975,0,0,0,94.546-54.395.5.5,0,1,1,.771.637,155.975,155.975,0,0,1-95.156,54.745A.5.5,0,0,1,69.961,159.72Z" transform="translate(112.857 168.813)" fill="#3ecfeb"/>
        <path id="Path_1030" data-name="Path 1030" d="M116.033,155.752a.5.5,0,0,1-.468-.677,154.513,154.513,0,0,0,10-54.91,154.614,154.614,0,0,0-9.64-53.954.5.5,0,1,1,.938-.348,155.611,155.611,0,0,1,9.7,54.3A155.51,155.51,0,0,1,116.5,155.428.5.5,0,0,1,116.033,155.752Z" transform="translate(187.175 74.262)" fill="#3ecfeb"/>
        <path id="Path_1031" data-name="Path 1031" d="M163.477,61.658a.5.5,0,0,1-.382-.177,155.846,155.846,0,0,0-41.34-34.526A154.117,154.117,0,0,0,70.012,8.482a.5.5,0,1,1,.163-.987,155.118,155.118,0,0,1,52.077,18.592,156.847,156.847,0,0,1,41.606,34.747.5.5,0,0,1-.382.823Z" transform="translate(113.07 12.887)" fill="#3ecfeb"/>
        <path id="Path_1032" data-name="Path 1032" d="M111.014,29.226a88.876,88.876,0,0,1,17.78,1.792,87.745,87.745,0,0,1,31.548,13.275A88.48,88.48,0,0,1,192.307,83.11a87.787,87.787,0,0,1,5.141,16.562,89.084,89.084,0,0,1,0,35.56,87.745,87.745,0,0,1-13.275,31.548,88.481,88.481,0,0,1-38.816,31.964,87.786,87.786,0,0,1-16.562,5.141,89.084,89.084,0,0,1-35.56,0A87.749,87.749,0,0,1,61.685,190.61,88.482,88.482,0,0,1,29.72,151.794a87.783,87.783,0,0,1-5.141-16.562,89.079,89.079,0,0,1,0-35.56A87.744,87.744,0,0,1,37.854,68.123,88.484,88.484,0,0,1,76.672,36.159a87.79,87.79,0,0,1,16.562-5.141A88.878,88.878,0,0,1,111.014,29.226Zm0,175.452a87.874,87.874,0,0,0,17.58-1.772,86.745,86.745,0,0,0,31.189-13.124,87.48,87.48,0,0,0,31.6-38.377,86.782,86.782,0,0,0,5.082-16.373,88.083,88.083,0,0,0,0-35.159,86.745,86.745,0,0,0-13.124-31.189,87.48,87.48,0,0,0-38.377-31.6A86.783,86.783,0,0,0,128.594,32a88.084,88.084,0,0,0-35.16,0,86.75,86.75,0,0,0-31.19,13.124A87.482,87.482,0,0,0,30.641,83.5a86.779,86.779,0,0,0-5.083,16.373,88.078,88.078,0,0,0,0,35.159A86.745,86.745,0,0,0,38.683,166.22a87.485,87.485,0,0,0,38.378,31.6,86.787,86.787,0,0,0,16.373,5.082A87.875,87.875,0,0,0,111.014,204.678Z" transform="translate(46.586 56.974)" fill="#3ecfeb"/>
        <path id="Ellipse_37" data-name="Ellipse 37" d="M16.826-.5A17.33,17.33,0,0,1,23.57,32.79,17.33,17.33,0,0,1,10.082.862,17.218,17.218,0,0,1,16.826-.5Zm0,33.652A16.326,16.326,0,0,0,28.37,5.282,16.326,16.326,0,0,0,5.282,28.37,16.219,16.219,0,0,0,16.826,33.152Z" transform="translate(140.774 1.96)" fill="#3ecfeb"/>
        <path id="Ellipse_38" data-name="Ellipse 38" d="M16.826-.5A17.33,17.33,0,0,1,23.57,32.79,17.33,17.33,0,0,1,10.082.862,17.218,17.218,0,0,1,16.826-.5Zm0,33.652A16.326,16.326,0,0,0,28.37,5.282,16.326,16.326,0,1,0,5.282,28.37,16.219,16.219,0,0,0,16.826,33.152Z" transform="translate(140.774 313.24)" fill="#3ecfeb"/>
        <path id="Path_1033" data-name="Path 1033" d="M122.3,64.687a17.317,17.317,0,0,1-15.02-8.666,17.331,17.331,0,0,1,14.99-25.992,17.317,17.317,0,0,1,15.02,8.666A17.331,17.331,0,0,1,122.3,64.687Zm-.03-33.658a16.317,16.317,0,1,0,8.06,2.119A16.323,16.323,0,0,0,122.266,31.029Z" transform="translate(170.107 49.247)" fill="#3ecfeb"/>
        <path id="Path_1034" data-name="Path 1034" d="M19.134,124.248a17.317,17.317,0,0,1-15.02-8.666A17.331,17.331,0,0,1,19.1,89.59a17.317,17.317,0,0,1,15.02,8.666,17.331,17.331,0,0,1-14.99,25.992ZM19.1,90.59a16.317,16.317,0,1,0,8.06,2.119A16.323,16.323,0,0,0,19.1,90.59Z" transform="translate(3.693 145.326)" fill="#3ecfeb"/>
        <path id="Path_1035" data-name="Path 1035" d="M122.266,124.248A17.319,17.319,0,1,1,130.818,122,17.324,17.324,0,0,1,122.266,124.248Zm.03-33.658a16.319,16.319,0,0,0-14.154,8.166,16.331,16.331,0,0,0,14.124,24.492,16.319,16.319,0,0,0,14.154-8.166A16.331,16.331,0,0,0,122.3,90.59Z" transform="translate(170.107 145.327)" fill="#3ecfeb"/>
        <path id="Path_1036" data-name="Path 1036" d="M19.1,64.687a17.319,17.319,0,1,1,8.552-2.248A17.324,17.324,0,0,1,19.1,64.687Zm.03-33.658A16.319,16.319,0,0,0,4.979,39.2,16.331,16.331,0,0,0,19.1,63.687a16.319,16.319,0,0,0,14.154-8.166A16.331,16.331,0,0,0,19.134,31.029Z" transform="translate(3.693 49.247)" fill="#3ecfeb"/>
        <path id="Path_1037" data-name="Path 1037" d="M61.295,20.372a1.55,1.55,0,1,1-1.346.776A1.55,1.55,0,0,1,61.295,20.372Zm0,2.1a.552.552,0,0,0,.277-1.029.541.541,0,0,0-.274-.074.555.555,0,0,0-.48.275.552.552,0,0,0,.2.754A.541.541,0,0,0,61.292,22.475Z" transform="translate(97.176 33.669)" fill="#3ecfeb"/>
        <path id="Path_1038" data-name="Path 1038" d="M61.295,110.518a1.55,1.55,0,1,1-1.346.776A1.55,1.55,0,0,1,61.295,110.518Zm0,2.1a.552.552,0,0,0,.277-1.029.541.541,0,0,0-.274-.074.555.555,0,0,0-.48.275.552.552,0,0,0,.2.754A.541.541,0,0,0,61.292,112.621Z" transform="translate(97.176 179.086)" fill="#3ecfeb"/>
        <path id="Path_1039" data-name="Path 1039" d="M100.33,91.085a1.551,1.551,0,1,1,.775-.208A1.558,1.558,0,0,1,100.33,91.085Zm0-2.1a.547.547,0,0,0-.273.074.55.55,0,1,0,.273-.074Z" transform="translate(160.144 142.732)" fill="#3ecfeb"/>
        <path id="Path_1040" data-name="Path 1040" d="M22.261,46.012a1.551,1.551,0,1,1,.775-.208A1.558,1.558,0,0,1,22.261,46.012Zm0-2.1a.547.547,0,0,0-.273.074.55.55,0,1,0,.273-.074Z" transform="translate(34.21 70.024)" fill="#3ecfeb"/>
        <path id="Path_1041" data-name="Path 1041" d="M100.329,42.909a1.55,1.55,0,1,1-1.553,1.55A1.552,1.552,0,0,1,100.329,42.909Zm0,2.1a.55.55,0,1,0-.553-.55A.551.551,0,0,0,100.329,45.01Z" transform="translate(160.144 70.024)" fill="#3ecfeb"/>
        <path id="Path_1042" data-name="Path 1042" d="M22.26,87.982a1.55,1.55,0,1,1-1.553,1.55A1.552,1.552,0,0,1,22.26,87.982Zm0,2.1a.55.55,0,1,0-.553-.55A.551.551,0,0,0,22.26,90.083Z" transform="translate(34.209 142.732)" fill="#3ecfeb"/>
      </g>
    </g>
    <circle id="Ellipse_42" data-name="Ellipse 42" cx="8.355" cy="8.355" r="8.355" transform="translate(1007.21 1654.112)" fill="#3ecfeb"/>
    <g id="Group_1605" data-name="Group 1605" transform="translate(977.819 1468.869)">
      <path id="Path_1" data-name="Path 1" d="M48.446,13.361l-5.852,6.454-.338.174L37.734,19l1.574-3.349Zm-5.337,6.98L49.675,13.1l16.1,1.985L46.655,23.155Zm14.061-16.6-7.833,8.639L38.792,15.015l-1.834,3.811L29.2,17.121l7.832-9.175ZM36.62,7.231l-8.2,9.72-7.852-1.725-1.44-4.768-8.141,3.058,5.356,1.8-10.716,7.2L0,22.938l1,5.1,5.854,1.572,15.891,7.969-4.922,8.544,5.314,14.126.936-12.333,1.776-.893,4.936,5.511L28.74,45.577,31.4,44.242,28.66,27.814,28.7,27.8,33.681,45.6l9.427,5.24L41.774,37.264l5.27,19.529L43.756,69.427l14.793-18.12L51.262,62.6,53.07,75.961,64.784,50.233l-.778-4.244,5.9,1.378L71.9,41.083h0l-6.579.006,4.47,2.356-2.109,2.361-4.256-2.981-1.363-7.443L47.33,23.692l21.269-9L50.283,12.43l8.952-9.875Z" transform="translate(0 0.067)" fill="#003142"/>
      <path id="Path_2" data-name="Path 2" d="M9.237,19.45l-5.631.424,1,5.1,5.855,1.572Z" transform="translate(0.094 0.509)" fill="#d1904c"/>
      <path id="Path_3" data-name="Path 3" d="M9.094,19.633l10.716-7.2,1.545,10.629Z" transform="translate(0.238 0.325)" fill="#f6d184"/>
      <path id="Path_4" data-name="Path 4" d="M14.318,10.76,22.458,7.7l2.695,8.927-5.48-4.071Z" transform="translate(0.375 0.202)" fill="#f3ac2c"/>
      <path id="Path_5" data-name="Path 5" d="M21.043,22.959,24.977,16.4l6.769,8.046Z" transform="translate(0.551 0.429)" fill="#ef8062"/>
      <path id="Path_6" data-name="Path 6" d="M34.548,41.053l-7.32,3.677-6.249-1.794L31.748,24.243Z" transform="translate(0.549 0.635)" fill="#8489b0"/>
      <path id="Path_7" data-name="Path 7" d="M31.473,24.243l5.085,18.169,8.093-8.338Z" transform="translate(0.824 0.635)" fill="#7e857b"/>
      <path id="Path_8" data-name="Path 8" d="M31.473,24.43,45.7,17.109,44.651,34.261Z" transform="translate(0.824 0.448)" fill="#d59958"/>
      <path id="Path_9" data-name="Path 9" d="M31.681,41.9,28.8,43.375l4.936,5.511Z" transform="translate(0.754 1.097)" fill="#007092"/>
      <path id="Path_10" data-name="Path 10" d="M61.09,47.865,44.315,33.823l5.27,19.529L46.3,65.986Z" transform="translate(1.16 0.885)" fill="#0088af"/>
      <path id="Path_11" data-name="Path 11" d="M60.662,47.913l3.515-15.924L66.9,46.84Z" transform="translate(1.588 0.837)" fill="#249699"/>
      <path id="Path_12" data-name="Path 12" d="M61.09,47.913,44.315,33.872,64.6,31.99Z" transform="translate(1.16 0.837)" fill="#0088af"/>
      <path id="Path_13" data-name="Path 13" d="M60.848,47.534l-7.287,11.3,1.808,13.356L67.082,46.461Z" transform="translate(1.402 1.216)" fill="#006d92"/>
      <path id="Path_14" data-name="Path 14" d="M21.324,22.792l-11.035,3.67L26.181,34.43Z" transform="translate(0.269 0.597)" fill="#bb724a"/>
      <path id="Path_15" data-name="Path 15" d="M25.9,34.429,21.043,22.792l10.7,1.489Z" transform="translate(0.551 0.597)" fill="#8b5e72"/>
      <path id="Path_16" data-name="Path 16" d="M44.315,34.261l1.046-17.153L64.6,32.379Z" transform="translate(1.16 0.448)" fill="#45b4b7"/>
      <path id="Path_17" data-name="Path 17" d="M10.32,26.549l-1.226-7.1,12.262,3.429Z" transform="translate(0.238 0.509)" fill="#f3ac2c"/>
      <path id="Path_18" data-name="Path 18" d="M27.229,44.253l-6.249-1.794,5.314,14.126Z" transform="translate(0.549 1.111)" fill="#008eb5"/>
      <path id="Path_19" data-name="Path 19" d="M44.521,33.824l-8.092,8.338L45.856,47.4Z" transform="translate(0.954 0.885)" fill="#007092"/>
      <path id="Path_20" data-name="Path 20" d="M31.646,24.448,24.877,16.4l20.992.727Z" transform="translate(0.651 0.429)" fill="#f3ac2c"/>
      <path id="Path_21" data-name="Path 21" d="M24.909,16.508l-1.256-4.16L45.9,17.233Z" transform="translate(0.619 0.323)" fill="#f6d184"/>
      <path id="Path_22" data-name="Path 22" d="M32.042,14.615l7.874-9.225,20.14-4.206L45.48,17.258l-13.618,7.01ZM62.122,0,61.014.231,39.643,4.695l-.124.026-.081.1-8.04,9.42-.086.1,0,.133-.194,10.4-.01.616.547-.282,14.224-7.321.057-.03.046-.051L61.361.838Z" transform="translate(0.814)" fill="#fff"/>
      <path id="Path_23" data-name="Path 23" d="M39.622,16.02l1.758-3.651.075-.159.169-.043,10.483-2.62.068-.017.067.008L69.9,11.714l1.367.168-1.268.537-20,8.467-.675-.536,19.122-8.072-16.223-2L41.972,12.84,40.4,16.19Z" transform="translate(1.037 0.249)" fill="#fff"/>
      <path id="Path_24" data-name="Path 24" d="M63.65,41.88,63.644,38l8.3,5.815Z" transform="translate(1.666 0.995)" fill="#007092"/>
      <path id="Path_25" data-name="Path 25" d="M71.788,43.829l-2.228-1.561,4.22-4.725Z" transform="translate(1.821 0.983)" fill="#38afb1"/>
      <path id="Path_26" data-name="Path 26" d="M71.73,39.906,67.261,37.55l6.579-.006Z" transform="translate(1.761 0.983)" fill="#288083"/>
      <path id="Path_27" data-name="Path 27" d="M21.082,23.063,19.536,12.434l5.48,4.072Z" transform="translate(0.511 0.325)" fill="#cf7941"/>
    </g>
    <path id="Polygon_4" data-name="Polygon 4" d="M8.356,0l8.356,15.756H0Z" transform="translate(872.339 1574.811)" fill="#3ecfeb"/>
    <path id="Polygon_5" data-name="Polygon 5" d="M7.878,0l7.878,6.018-3.009,9.738H3.009L0,6.018Z" transform="translate(1142.553 1575.936)" fill="#3ecfeb"/>
    <path id="Polygon_6" data-name="Polygon 6" d="M7.878,0l2.363,5.289,5.515.729-4.054,4,1.045,5.74L7.878,12.937,3.009,15.756l1.045-5.74L0,6.018l5.515-.729Z" transform="translate(1008.162 1342.072)" fill="#3ecfeb"/>
    <rect id="Rectangle_792" data-name="Rectangle 792" width="14.462" height="14.462" transform="translate(873.468 1421.9)" fill="#3ecfeb"/>
    <rect id="Rectangle_793" data-name="Rectangle 793" width="14.462" height="8.835" transform="translate(1143.2 1424.151)" fill="#3ecfeb"/>
  </g>
</svg>
