<svg xmlns="http://www.w3.org/2000/svg" xmlns:xlink="http://www.w3.org/1999/xlink" width="412" height="380" viewBox="0 0 412 380">
  <defs>
    <clipPath id="clip-path">
      <rect id="Rectangle_867" data-name="Rectangle 867" width="412" height="380" transform="translate(400 3378)" fill="#00435c"/>
    </clipPath>
  </defs>
  <g id="Mask_Group_6" data-name="Mask Group 6" transform="translate(-400 -3378)" clip-path="url(#clip-path)">
    <path id="Path_2350" data-name="Path 2350" d="M293.423,68,257.977,107.09l-2.045,1.057-27.391-6.016,9.534-20.287ZM261.1,110.278l39.772-43.861,97.524,12.02L282.577,127.327ZM346.259,9.727,298.818,62.054,234.95,78.021,223.843,101.1l-46.994-10.33L224.284,35.2ZM221.8,30.878,172.157,89.749,124.6,79.3l-8.72-28.876L66.572,68.947l32.437,10.9L34.1,123.442,0,126.009l6.079,30.909,35.458,9.522,96.25,48.268-29.808,51.748,32.183,85.559,5.668-74.7,10.759-5.407,29.9,33.376L174.071,263.13l16.091-8.086-16.576-99.5.224-.112L204,263.279l57.1,31.735-8.086-82.234,31.922,118.283-19.914,76.516,89.6-109.749-44.141,68.43,10.951,80.9,70.947-155.829-4.711-25.706,35.756,8.347,12.058-38.062h-.006l-39.846.037,27.074,14.27-12.772,14.3-25.775-18.055L375.9,201.381l-89.233-70.8L415.485,76.038,304.548,62.365,358.77,2.555Z" transform="translate(376.921 3375.478)" fill="#3ecfeb" opacity="0.1"/>
  </g>
</svg>
