<svg xmlns="http://www.w3.org/2000/svg" width="402.824" height="411.264" viewBox="0 0 402.824 411.264">
  <path id="Path_292" data-name="Path 292" d="M271.42,63.094,238.632,99.251l-1.891.977L211.4,94.663,220.223,75.9Zm-29.9,39.106,36.789-40.572,90.211,11.119L261.388,117.97ZM320.294,9.19l-43.884,48.4-59.079,14.77L207.058,93.714l-43.47-9.555,43.878-51.4ZM205.166,28.754,159.247,83.211l-43.993-9.664-8.066-26.711L61.58,63.968,91.585,74.046,31.546,114.377,0,116.751l5.623,28.591,32.8,8.808L127.454,198.8,99.881,246.666,129.65,325.81l5.243-69.094,9.952-5L172.5,282.587l-11.481-39,14.885-7.48L160.57,144.072l.207-.1,27.924,99.76,52.818,29.355-7.48-76.068,29.528,109.413-18.42,70.778,82.881-101.519-40.831,63.3,10.13,74.832,65.627-144.144L358.6,245.9l33.075,7.721,11.154-35.208h-.006l-36.858.034L391,231.644l-11.815,13.229-23.842-16.7-7.635-41.7-82.541-65.495L384.329,70.528,281.711,57.88,331.867,2.555Z" transform="translate(0 -2.555)" fill="#3ecfeb" opacity="0.2"/>
</svg>
