<?xml version="1.0" encoding="UTF-8"?>
<!DOCTYPE svg PUBLIC "-//W3C//DTD SVG 1.1//EN" "http://www.w3.org/Graphics/SVG/1.1/DTD/svg11.dtd">
<!-- Creator: CorelDRAW X6 -->
<svg xmlns="http://www.w3.org/2000/svg" xml:space="preserve" width="101.296mm" height="48.402mm" version="1.1" style="shape-rendering:geometricPrecision; text-rendering:geometricPrecision; image-rendering:optimizeQuality; fill-rule:evenodd; clip-rule:evenodd"
viewBox="0 0 9808 4686"
 xmlns:xlink="http://www.w3.org/1999/xlink">
 <defs>
  <style type="text/css">
   <![CDATA[
    .fil11 {fill:#007195}
    .fil8 {fill:#007395}
    .fil10 {fill:#068CB2}
    .fil0 {fill:#0D3C4A}
    .fil15 {fill:#1392B7}
    .fil9 {fill:#31999D}
    .fil18 {fill:#348387}
    .fil17 {fill:#37B1B6}
    .fil14 {fill:#43B6BA}
    .fil6 {fill:#80897E}
    .fil5 {fill:#888DB2}
    .fil13 {fill:#8E6376}
    .fil12 {fill:#BD7651}
    .fil19 {fill:#D17C49}
    .fil1 {fill:#D29352}
    .fil7 {fill:#D79C5D}
    .fil4 {fill:#F08365}
    .fil3 {fill:#F4AF37}
    .fil2 {fill:#F7D387}
    .fil16 {fill:#FEFEFE}
   ]]>
  </style>
 </defs>
 <g id="Layer_x0020_1">
  <metadata id="CorelCorpID_0Corel-Layer"/>
  <g id="_663262024">
   <path class="fil0" d="M1484 2958l-58 760 -328 -871 303 -527 -980 -491 -361 -97 -62 -315 347 -26 661 -444 -330 -111 502 -189 89 294 484 106 505 -599 1394 -288 -552 609 1129 139 -1311 555 908 721 84 459 262 184 130 -146 -275 -145 406 0 0 0 -123 387 -364 -85 48 262 -722 1586 -111 -823 449 -696 -912 1117 203 -779 -325 -1204 82 837 -581 -323 -307 -1098 -2 1 169 1013 -164 82 126 429 -304 -340 -110 55zm316 -1898l0 0 478 105 113 -235 650 -162 483 -533 -1241 259 -483 566zm1262 -248l0 0 -405 446 219 173 1179 -498 -993 -122zm-457 425l0 0 21 -11 361 -398 -563 141 -97 206 279 61z"/>
   <g>
    <polygon class="fil1" points="575,1230 228,1256 290,1571 651,1668 "/>
    <polygon class="fil2" points="575,1230 1236,786 1331,1442 "/>
    <polygon class="fil3" points="906,676 1407,487 1574,1037 1236,786 "/>
    <polygon class="fil4" points="1331,1442 1574,1037 1991,1533 "/>
    <polygon class="fil5" points="2163,2570 1712,2796 1327,2686 1991,1533 "/>
    <polygon class="fil6" points="1991,1533 2304,2653 2803,2139 "/>
    <polygon class="fil7" points="1991,1533 2868,1082 2803,2139 "/>
    <polygon class="fil8" points="1999,2651 1822,2741 2126,3081 "/>
    <polygon class="fil9" points="3837,3005 2803,2139 3128,3343 2925,4122 "/>
    <polygon class="fil9" points="3837,3005 4054,2023 4221,2939 "/>
    <polygon class="fil10" points="3837,3005 2803,2139 4054,2023 "/>
    <polygon class="fil11" points="3837,3005 3388,3701 3499,4525 4221,2939 "/>
    <polygon class="fil12" points="1331,1442 651,1668 1630,2159 "/>
    <polygon class="fil13" points="1630,2159 1331,1442 1991,1533 "/>
    <polygon class="fil14" points="2803,2139 2868,1082 4054,2023 "/>
    <polygon class="fil3" points="651,1668 575,1230 1331,1442 "/>
    <polygon class="fil15" points="1712,2796 1327,2686 1655,3556 "/>
    <polygon class="fil8" points="2803,2139 2304,2653 2885,2976 "/>
    <polygon class="fil3" points="1991,1533 1574,1037 2868,1082 "/>
    <polygon class="fil2" points="1574,1037 1496,781 2868,1082 "/>
    <path class="fil16" d="M2878 1102l-877 451 -34 17 1 -38 12 -641 0 -8 5 -6 496 -581 5 -6 8 -2 1317 -275 68 -14 -47 52 -948 1046 -3 3 -4 2zm-864 394l0 0 839 -432 898 -991 -1241 259 -485 569 -11 595z"/>
    <polygon class="fil16" points="2506,1003 2615,778 2619,768 2630,765 3276,604 3280,603 3284,603 4372,737 4457,748 4378,781 3146,1303 3104,1270 4283,772 3283,649 2651,807 2554,1013 "/>
    <polygon class="fil8" points="4026,2643 4026,2404 4537,2762 "/>
    <polygon class="fil17" points="4537,2762 4400,2666 4660,2375 "/>
    <polygon class="fil18" points="4530,2520 4254,2375 4660,2375 "/>
    <polygon class="fil19" points="1331,1442 1236,786 1574,1037 "/>
   </g>
   <path class="fil16" d="M6174 1604l-55 151 110 0 -55 -151zm91 251l0 0 -20 -56 -142 0 -20 56 -47 0 110 -304 56 0 111 304 -48 0zm351 0l0 0 0 -129 -141 0 0 129 -45 0 0 -304 45 0 0 130 141 0 0 -130 45 0 0 304 -45 0zm397 -216l0 0c0,-12 -4,-22 -13,-31 -8,-9 -18,-13 -30,-13l-110 0 0 86 110 0c12,0 22,-4 30,-13 8,-8 13,-19 13,-30zm7 130l0 0c0,-12 -4,-22 -13,-30 -8,-8 -18,-13 -30,-13l-117 0 0 85 117 0c12,0 22,-4 30,-13 8,-8 13,-18 13,-30zm44 0l0 0c0,24 -9,44 -26,61 -17,17 -38,25 -61,25l-161 0 0 -304 154 0c24,0 44,9 61,26 17,17 26,38 26,61 0,26 -11,47 -32,63 26,15 39,37 39,67zm-947 409l0 0 0 82 111 0 0 44 -111 0 0 134 -45 0 0 -304 193 0 0 44 -148 0zm286 260l0 0 0 -304 45 0 0 304 -45 0zm388 0l0 0 -143 -219 0 219 -45 0 0 -304 43 0 143 220 0 -220 45 0 0 304 -43 0zm299 -251l0 0 -55 151 110 0 -55 -151zm91 251l0 0 -20 -56 -142 0 -20 56 -47 0 110 -304 56 0 111 304 -48 0zm353 0l0 0 -143 -219 0 219 -45 0 0 -304 43 0 143 220 0 -220 45 0 0 304 -43 0zm432 -209l0 0c-11,-16 -25,-30 -41,-40 -17,-10 -35,-15 -54,-15 -30,0 -57,11 -79,33 -22,22 -33,48 -33,79 0,30 11,57 33,79 22,22 48,33 79,33 39,0 71,-18 95,-54l37 25c-15,22 -34,40 -57,54 -24,13 -49,20 -76,20 -42,0 -79,-15 -110,-45 -31,-31 -46,-67 -46,-110 0,-42 15,-79 46,-110 31,-31 67,-46 110,-46 26,0 52,7 76,20 23,13 42,32 57,54l-38 24zm174 209l0 0 0 -304 193 0 0 44 -148 0 0 82 111 0 0 44 -111 0 0 89 148 0 0 44 -193 0zm-1808 582l0 0 0 -193 -85 193 -46 0 -85 -193 0 193 -45 0 0 -304 45 0 107 245 107 -245 45 0 0 304 -45 0zm301 -251l0 0 -55 151 110 0 -55 -151zm91 251l0 0 -20 -56 -142 0 -20 56 -47 0 110 -304 56 0 111 304 -48 0zm353 0l0 0 -143 -219 0 219 -45 0 0 -304 43 0 143 220 0 -220 45 0 0 304 -43 0zm299 -251l0 0 -55 151 110 0 -55 -151zm91 251l0 0 -20 -56 -142 0 -20 56 -47 0 110 -304 56 0 111 304 -48 0zm398 -209l0 0c-11,-16 -25,-30 -41,-40 -17,-10 -35,-15 -54,-15 -30,0 -57,11 -79,33 -22,22 -33,48 -33,79 0,30 11,57 33,79 22,22 48,33 79,33 35,0 64,-14 87,-42l0 -47 -90 0 0 -44 135 0 0 173 -45 0 0 -28c-22,21 -51,31 -87,31 -42,0 -79,-15 -110,-45 -31,-31 -46,-67 -46,-110 0,-42 15,-79 46,-110 31,-31 67,-46 110,-46 26,0 52,7 76,20 23,13 42,32 57,54l-38 24zm193 209l0 0 0 -304 193 0 0 44 -148 0 0 82 111 0 0 44 -111 0 0 89 148 0 0 44 -193 0zm609 0l0 0 0 -193 -85 193 -46 0 -85 -193 0 193 -45 0 0 -304 45 0 107 245 107 -245 45 0 0 304 -45 0zm201 0l0 0 0 -304 193 0 0 44 -148 0 0 82 111 0 0 44 -111 0 0 89 148 0 0 44 -193 0zm537 0l0 0 -143 -219 0 219 -45 0 0 -304 43 0 143 220 0 -220 45 0 0 304 -43 0zm308 -260l0 0 0 260 -45 0 0 -260 -93 0 0 -44 230 0 0 44 -93 0z"/>
   <polygon class="fil16" points="5302,269 5329,269 5329,4404 5302,4404 "/>
  </g>
 </g>
</svg>
