<?xml version="1.0" standalone="no"?>
<!DOCTYPE svg PUBLIC "-//W3C//DTD SVG 20010904//EN"
 "http://www.w3.org/TR/2001/REC-SVG-20010904/DTD/svg10.dtd">
<svg version="1.0" xmlns="http://www.w3.org/2000/svg"
 width="512.000000pt" height="512.000000pt" viewBox="0 0 512.000000 512.000000"
 preserveAspectRatio="xMidYMid meet">
<metadata>
Created by potrace 1.14, written by Peter Selinger 2001-2017
</metadata>
<g transform="translate(0.000000,512.000000) scale(0.100000,-0.100000)"
fill="#000000" stroke="none">
<path d="M3930 4883 c-91 -19 -185 -38 -210 -43 -25 -5 -151 -31 -280 -59
-129 -28 -300 -64 -380 -80 -351 -71 -343 -69 -369 -99 -88 -102 -95 -108
-153 -120 -52 -12 -60 -18 -118 -87 -33 -41 -67 -80 -73 -87 -7 -7 -48 -56
-92 -108 -44 -52 -92 -109 -108 -126 l-28 -31 -76 18 c-42 10 -88 20 -102 23
-14 2 -71 14 -126 26 l-100 22 -44 149 c-36 123 -47 149 -60 143 -17 -6 -328
-123 -426 -159 l-60 -23 39 -16 c21 -9 43 -16 48 -16 19 0 -3 -18 -29 -24 -35
-9 -266 -96 -275 -105 -4 -4 56 -28 135 -55 78 -27 148 -52 155 -55 8 -4 -69
-62 -199 -149 -238 -160 -186 -141 -444 -158 -55 -3 -103 -8 -107 -10 -6 -4
-4 -34 8 -84 12 -51 12 -57 1 -57 -7 0 -52 -4 -102 -8 -49 -4 -102 -8 -117 -8
-32 -1 -32 0 -14 -92 8 -38 17 -83 20 -99 3 -16 10 -53 16 -81 l11 -51 87 -23
c48 -13 125 -33 172 -44 68 -17 182 -70 579 -269 272 -136 498 -251 502 -255
3 -5 -62 -125 -145 -268 l-152 -260 161 -428 c88 -235 162 -427 166 -427 3 0
6 6 6 13 0 19 13 188 18 232 2 22 7 81 11 130 4 50 8 104 9 120 2 17 3 50 4
75 2 60 6 53 97 -191 85 -228 93 -246 94 -209 2 53 19 278 25 350 2 19 5 61 6
93 1 31 5 57 9 57 4 0 47 -45 96 -100 49 -55 90 -97 91 -93 2 5 -23 99 -55
209 l-59 202 35 16 c19 9 42 14 51 11 9 -4 70 -69 136 -145 66 -76 123 -139
126 -139 6 -1 -105 381 -115 397 -5 9 11 39 17 32 3 -3 16 -43 29 -90 l25 -85
199 -110 c109 -61 226 -126 259 -144 33 -18 75 -42 93 -53 l33 -20 -5 63 c-6
69 -16 170 -20 212 -2 15 1 27 6 27 20 0 97 -52 102 -68 36 -127 49 -175 76
-277 17 -66 44 -169 60 -228 27 -101 28 -111 15 -155 -17 -58 -176 -661 -180
-685 -2 -9 -7 -22 -10 -27 -3 -6 -4 -10 -2 -10 3 0 62 71 132 157 71 87 132
162 136 167 4 5 1 -18 -8 -50 -21 -81 -23 -94 -15 -93 4 0 63 70 132 155 126
156 181 218 121 134 -33 -46 -33 -49 -17 -150 3 -14 7 -50 10 -80 4 -30 8 -68
11 -85 7 -46 15 -105 21 -155 3 -25 7 -54 9 -65 1 -11 6 -47 10 -80 3 -33 9
-71 11 -85 2 -14 6 -45 10 -70 8 -67 13 -92 17 -96 2 -2 21 36 42 84 21 48 59
130 83 182 24 52 49 106 55 120 11 27 12 27 41 -159 l11 -74 154 339 c85 186
169 371 186 409 40 88 76 165 105 230 13 28 36 79 53 115 141 308 216 483 211
492 -5 7 -2 8 6 3 10 -6 11 -2 7 17 -7 25 -6 26 31 17 20 -5 42 -9 49 -9 6 0
26 45 43 99 31 97 33 99 56 91 13 -5 24 -8 24 -6 0 2 21 -2 47 -10 25 -8 52
-14 59 -14 10 0 74 183 128 366 l7 22 -201 0 c-228 -1 -223 6 -60 -78 47 -24
96 -49 109 -56 l23 -12 -39 -44 c-22 -23 -50 -55 -63 -70 -13 -16 -27 -28 -31
-28 -4 0 1 28 12 63 10 34 19 62 19 62 0 0 -46 0 -102 0 -178 -2 -189 12 -232
275 -3 19 -8 46 -11 60 -3 14 -9 50 -15 80 -16 88 -19 103 -22 105 -2 1 -131
104 -288 229 -157 124 -321 254 -364 289 -194 153 -209 166 -190 173 19 6 229
95 694 292 130 54 253 105 273 113 46 16 48 29 5 29 -72 0 -51 17 108 84 90
38 163 71 161 72 -2 2 -38 7 -182 24 -49 6 -106 13 -125 16 -73 10 -107 14
-165 20 -33 3 -67 8 -75 9 -9 2 -43 6 -75 10 -33 4 -73 9 -90 11 -16 2 -73 9
-125 14 -52 6 -102 13 -110 15 -8 2 -49 7 -90 11 -41 3 -77 8 -79 9 -5 6 21
38 104 130 44 48 85 93 90 99 6 6 55 61 110 121 169 186 180 197 190 209 40
46 47 56 39 55 -5 0 -83 -16 -174 -36z m43 -47 c-4 -7 -40 -49 -80 -92 -39
-44 -81 -90 -93 -104 -12 -14 -47 -52 -78 -85 -31 -33 -84 -91 -117 -129 -72
-83 -93 -104 -120 -118 -18 -10 -5 7 95 116 64 71 81 90 159 175 111 122 140
155 138 157 -1 1 -42 -6 -92 -17 -49 -10 -105 -22 -124 -25 -18 -3 -41 -7 -50
-9 -9 -2 -171 -36 -361 -75 -190 -39 -394 -82 -455 -95 -60 -13 -111 -23 -112
-21 -1 1 11 18 27 38 25 31 52 43 100 48 3 1 25 6 50 11 92 21 326 70 360 75
19 3 38 8 41 10 3 2 21 6 40 9 19 3 52 10 74 15 22 5 56 12 75 15 19 3 51 10
70 15 19 5 50 12 68 15 18 3 65 12 105 21 39 9 119 26 177 38 58 13 106 24
108 25 2 0 -1 -5 -5 -13z m-239 -178 c-33 -38 -191 -213 -249 -274 -5 -6 -28
-30 -50 -55 l-39 -44 -191 -48 c-104 -26 -197 -49 -205 -51 -8 -3 -44 -11 -79
-20 -34 -8 -66 -18 -69 -21 -4 -3 -20 -32 -37 -63 l-30 -57 -83 -19 c-69 -15
-86 -23 -94 -42 -7 -15 -17 -23 -27 -20 -13 4 -80 18 -196 42 -86 17 -125 29
-123 36 2 4 81 100 177 213 182 215 180 213 276 231 11 2 31 6 45 9 14 3 36 7
50 10 21 4 70 15 90 20 3 1 28 5 55 10 28 5 52 10 55 10 25 6 119 26 135 29
11 3 64 14 119 25 54 12 108 23 120 25 11 2 42 9 69 15 26 6 62 14 80 17 17 2
68 13 112 23 110 25 112 25 89 -1z m-1205 -245 c-8 -10 -17 -20 -20 -23 -7 -7
-266 -308 -289 -337 -18 -23 -40 -31 -40 -14 0 5 3 11 8 13 4 2 30 30 57 63
28 33 52 62 55 65 3 3 47 55 99 115 52 61 101 116 110 123 22 18 36 15 20 -5z
m1156 -167 c66 -8 145 -18 175 -21 30 -3 66 -8 80 -10 14 -2 50 -6 80 -10 71
-8 129 -15 160 -20 14 -2 54 -7 90 -10 36 -4 74 -9 85 -11 10 -2 51 -6 90 -10
38 -3 71 -7 73 -9 1 -1 -33 -17 -75 -35 -43 -18 -102 -44 -131 -57 -55 -24
-53 -24 -213 -3 -42 6 -98 13 -125 15 -27 3 -65 7 -84 10 -47 8 -81 12 -240
30 -74 9 -144 18 -155 20 -11 2 -35 4 -52 4 -18 1 -33 4 -33 9 0 4 27 35 60
70 42 45 65 62 77 58 10 -3 72 -12 138 -20z m-261 -18 c-53 -63 -84 -92 -89
-87 -7 8 83 109 97 109 6 0 3 -10 -8 -22z m-118 -44 c-28 -30 -48 -39 -127
-59 -52 -13 -146 -37 -209 -53 -63 -16 -116 -28 -118 -27 -9 8 37 69 53 71 11
2 108 26 215 53 107 27 201 49 207 50 7 1 -2 -15 -21 -35z m-8 -97 c-11 -12
-57 -62 -204 -224 -12 -13 -24 -23 -28 -23 -12 0 15 33 114 140 52 56 97 106
98 111 2 5 10 9 19 9 12 0 12 -2 1 -13z m177 -7 c39 -4 129 -16 200 -24 72 -9
144 -18 160 -20 17 -2 55 -7 86 -10 31 -4 65 -8 75 -10 11 -2 49 -7 87 -11 37
-3 67 -10 67 -13 0 -4 -37 -22 -83 -41 -45 -19 -102 -43 -126 -54 -25 -10
-131 -55 -235 -99 -105 -44 -209 -88 -231 -97 -67 -29 -119 -50 -131 -53 -14
-4 -226 162 -222 173 2 4 56 66 122 138 83 92 124 131 140 131 11 -1 53 -5 91
-10z m-291 -32 c-17 -18 -53 -57 -80 -87 -89 -99 -105 -113 -117 -108 -7 2
-50 12 -97 22 -47 9 -91 19 -98 21 -9 2 -6 15 10 48 l21 44 133 32 c74 17 137
32 141 33 5 0 26 6 48 13 65 20 72 17 39 -18z m1086 -77 c-8 -5 -82 -37 -165
-71 -82 -34 -168 -70 -190 -80 -22 -9 -65 -28 -95 -40 -63 -25 -77 -31 -140
-58 -201 -87 -292 -123 -296 -119 -4 4 68 36 466 204 58 25 121 51 140 60 46
20 57 25 170 72 52 22 102 41 110 40 13 0 13 -1 0 -8z m-1510 -8 c0 -5 -9 -19
-19 -32 -16 -21 -22 -23 -49 -13 -17 6 -33 8 -36 5 -3 -4 -6 1 -6 10 0 12 9
17 28 17 15 0 34 5 42 10 18 12 40 13 40 3z m1733 -1759 c9 -3 17 -9 17 -12 0
-9 -71 -84 -76 -80 -1 2 -7 27 -12 56 l-9 53 31 -6 c17 -4 39 -9 49 -11z"/>
</g>
</svg>
